<svg xmlns="http://www.w3.org/2000/svg" width="1600" height="900" viewBox="0 0 1600 900" fill="none">
  <rect width="1600" height="900" fill="#06080D"/>
  <path d="M0 0H1600V900H0V0Z" fill="url(#bg)"/>
  <g opacity="0.18" stroke="#1A2330">
    <path d="M0 40H1600"/>
    <path d="M0 80H1600"/>
    <path d="M0 120H1600"/>
    <path d="M0 160H1600"/>
    <path d="M0 200H1600"/>
    <path d="M0 240H1600"/>
    <path d="M0 280H1600"/>
    <path d="M0 320H1600"/>
    <path d="M0 360H1600"/>
    <path d="M0 400H1600"/>
    <path d="M0 440H1600"/>
    <path d="M0 480H1600"/>
    <path d="M0 520H1600"/>
    <path d="M0 560H1600"/>
    <path d="M0 600H1600"/>
    <path d="M0 640H1600"/>
    <path d="M0 680H1600"/>
    <path d="M0 720H1600"/>
    <path d="M0 760H1600"/>
    <path d="M0 800H1600"/>
    <path d="M0 840H1600"/>
    <path d="M40 0V900"/>
    <path d="M80 0V900"/>
    <path d="M120 0V900"/>
    <path d="M160 0V900"/>
    <path d="M200 0V900"/>
    <path d="M240 0V900"/>
    <path d="M280 0V900"/>
    <path d="M320 0V900"/>
    <path d="M360 0V900"/>
    <path d="M400 0V900"/>
    <path d="M440 0V900"/>
    <path d="M480 0V900"/>
    <path d="M520 0V900"/>
    <path d="M560 0V900"/>
    <path d="M600 0V900"/>
    <path d="M640 0V900"/>
    <path d="M680 0V900"/>
    <path d="M720 0V900"/>
    <path d="M760 0V900"/>
    <path d="M800 0V900"/>
    <path d="M840 0V900"/>
    <path d="M880 0V900"/>
    <path d="M920 0V900"/>
    <path d="M960 0V900"/>
    <path d="M1000 0V900"/>
    <path d="M1040 0V900"/>
    <path d="M1080 0V900"/>
    <path d="M1120 0V900"/>
    <path d="M1160 0V900"/>
    <path d="M1200 0V900"/>
    <path d="M1240 0V900"/>
    <path d="M1280 0V900"/>
    <path d="M1320 0V900"/>
    <path d="M1360 0V900"/>
    <path d="M1400 0V900"/>
    <path d="M1440 0V900"/>
    <path d="M1480 0V900"/>
    <path d="M1520 0V900"/>
    <path d="M1560 0V900"/>
  </g>
  <rect x="220" y="70" width="270" height="44" rx="22" fill="#0B241E" stroke="#0C7054"/>
  <text x="255" y="98" fill="#8EF1C5" font-family="Segoe UI, Arial, sans-serif" font-size="18" font-weight="700" letter-spacing="4">AICODER WORKSPACE</text>
  <text x="220" y="190" fill="#F4F7FA" font-family="Segoe UI, Arial, sans-serif" font-size="48" font-weight="700">Projects</text>
  <text x="220" y="245" fill="#97A3B6" font-family="Segoe UI, Arial, sans-serif" font-size="24">Manage local workspaces, open projects and start a new task.</text>
  <rect x="220" y="320" width="1160" height="92" rx="22" fill="#0A0F17" stroke="#182230"/>
  <text x="250" y="365" fill="#F4F7FA" font-family="Segoe UI, Arial, sans-serif" font-size="28" font-weight="600">System check</text>
  <text x="250" y="396" fill="#8391A6" font-family="Segoe UI, Arial, sans-serif" font-size="20">Git and folder permissions are ready for project creation.</text>
  <rect x="1230" y="344" width="120" height="42" rx="21" fill="#0B241E" stroke="#0C7054"/>
  <text x="1256" y="372" fill="#9AF5CC" font-family="Segoe UI, Arial, sans-serif" font-size="20" font-weight="600">Ready</text>
  <rect x="220" y="460" width="330" height="300" rx="24" fill="#081018" stroke="#0C7054"/>
  <rect x="245" y="488" width="52" height="52" rx="14" fill="#0B241E"/>
  <text x="262" y="523" fill="#9AF5CC" font-family="Segoe UI Symbol, Segoe UI, Arial, sans-serif" font-size="34">+</text>
  <text x="245" y="590" fill="#F4F7FA" font-family="Segoe UI, Arial, sans-serif" font-size="34" font-weight="700">New project</text>
  <text x="245" y="635" fill="#93A0B2" font-family="Segoe UI, Arial, sans-serif" font-size="22">Create a clean local workspace</text>
  <text x="245" y="665" fill="#93A0B2" font-family="Segoe UI, Arial, sans-serif" font-size="22">with Git and prompt generation.</text>
  <text x="245" y="725" fill="#8EF1C5" font-family="Segoe UI, Arial, sans-serif" font-size="24" font-weight="600">Create project →</text>
  <rect x="570" y="460" width="330" height="300" rx="24" fill="#0A0F17" stroke="#182230"/>
  <rect x="595" y="488" width="52" height="52" rx="14" fill="#0B241E"/>
  <text x="612" y="521" fill="#8EF1C5" font-family="Segoe UI, Arial, sans-serif" font-size="34" font-weight="700">›</text>
  <text x="595" y="590" fill="#F4F7FA" font-family="Segoe UI, Arial, sans-serif" font-size="34" font-weight="700">source</text>
  <text x="595" y="635" fill="#93A0B2" font-family="Segoe UI, Arial, sans-serif" font-size="22">Open the workspace and continue</text>
  <text x="595" y="665" fill="#93A0B2" font-family="Segoe UI, Arial, sans-serif" font-size="22">the prompt → XML workflow.</text>
  <text x="595" y="725" fill="#97A3B6" font-family="Segoe UI, Arial, sans-serif" font-size="18" letter-spacing="4">LOCAL WORKSPACE</text>
  <text x="780" y="725" fill="#F4F7FA" font-family="Segoe UI, Arial, sans-serif" font-size="24" font-weight="600">Open →</text>
  <rect x="920" y="460" width="330" height="300" rx="24" fill="#0A0F17" stroke="#182230"/>
  <rect x="945" y="488" width="52" height="52" rx="14" fill="#0B241E"/>
  <text x="962" y="521" fill="#8EF1C5" font-family="Segoe UI, Arial, sans-serif" font-size="34" font-weight="700">›</text>
  <text x="945" y="590" fill="#F4F7FA" font-family="Segoe UI, Arial, sans-serif" font-size="34" font-weight="700">test1</text>
  <text x="945" y="635" fill="#93A0B2" font-family="Segoe UI, Arial, sans-serif" font-size="22">Reopen the project, inspect files</text>
  <text x="945" y="665" fill="#93A0B2" font-family="Segoe UI, Arial, sans-serif" font-size="22">and continue editing.</text>
  <text x="945" y="725" fill="#97A3B6" font-family="Segoe UI, Arial, sans-serif" font-size="18" letter-spacing="4">LOCAL WORKSPACE</text>
  <text x="1130" y="725" fill="#F4F7FA" font-family="Segoe UI, Arial, sans-serif" font-size="24" font-weight="600">Open →</text>
  <defs>
    <linearGradient id="bg" x1="800" y1="0" x2="800" y2="900" gradientUnits="userSpaceOnUse">
      <stop stop-color="#06101A"/>
      <stop offset="1" stop-color="#05070B"/>
    </linearGradient>
  </defs>
</svg>
