<svg xmlns="http://www.w3.org/2000/svg" width="1600" height="900" viewBox="0 0 1600 900" fill="none">
  <rect width="1600" height="900" fill="#06080D"/>
  <path d="M0 0H1600V900H0V0Z" fill="url(#bg)"/>
  <g opacity="0.18" stroke="#1A2330">
    <path d="M0 60H1600"/>
    <path d="M0 120H1600"/>
    <path d="M0 180H1600"/>
    <path d="M0 240H1600"/>
    <path d="M0 300H1600"/>
    <path d="M0 360H1600"/>
    <path d="M0 420H1600"/>
    <path d="M0 480H1600"/>
    <path d="M0 540H1600"/>
    <path d="M0 600H1600"/>
    <path d="M0 660H1600"/>
    <path d="M0 720H1600"/>
    <path d="M0 780H1600"/>
    <path d="M0 840H1600"/>
    <path d="M80 0V900"/>
    <path d="M160 0V900"/>
    <path d="M240 0V900"/>
    <path d="M320 0V900"/>
    <path d="M400 0V900"/>
    <path d="M480 0V900"/>
    <path d="M560 0V900"/>
    <path d="M640 0V900"/>
    <path d="M720 0V900"/>
    <path d="M800 0V900"/>
    <path d="M880 0V900"/>
    <path d="M960 0V900"/>
    <path d="M1040 0V900"/>
    <path d="M1120 0V900"/>
    <path d="M1200 0V900"/>
    <path d="M1280 0V900"/>
    <path d="M1360 0V900"/>
    <path d="M1440 0V900"/>
    <path d="M1520 0V900"/>
  </g>
  <rect x="0" y="0" width="1600" height="72" fill="#05070B"/>
  <text x="32" y="45" fill="#DDE5F2" font-family="Segoe UI, Arial, sans-serif" font-size="20">← Projects</text>
  <text x="170" y="45" fill="#8EF1C5" font-family="Segoe UI, Arial, sans-serif" font-size="24">⌘</text>
  <text x="198" y="45" fill="#F4F7FA" font-family="Segoe UI, Arial, sans-serif" font-size="24" font-weight="700">test1</text>
  <rect x="1180" y="16" width="114" height="40" rx="20" fill="#0B241E" stroke="#0C7054"/>
  <text x="1209" y="41" fill="#9AF5CC" font-family="Segoe UI, Arial, sans-serif" font-size="18" font-weight="600">source.txt</text>
  <text x="1320" y="42" fill="#97A3B6" font-family="Segoe UI, Arial, sans-serif" font-size="24">↓</text>
  <text x="1372" y="42" fill="#DDE5F2" font-family="Segoe UI, Arial, sans-serif" font-size="20">Template</text>
  <text x="1472" y="42" fill="#DDE5F2" font-family="Segoe UI, Arial, sans-serif" font-size="20">Settings</text>
  <rect x="0" y="72" width="310" height="828" fill="#071018"/>
  <rect x="310" y="72" width="930" height="828" fill="#06090F"/>
  <rect x="1240" y="72" width="360" height="828" fill="#071018"/>
  <path d="M310 72V900" stroke="#182230"/>
  <path d="M1240 72V900" stroke="#182230"/>
  <text x="20" y="120" fill="#A6B0C1" font-family="Segoe UI, Arial, sans-serif" font-size="16" font-weight="700" letter-spacing="4">EXPLORER</text>
  <text x="20" y="150" fill="#97A3B6" font-family="Segoe UI, Arial, sans-serif" font-size="18">Select files for prompt context.</text>
  <rect x="20" y="180" width="270" height="74" rx="18" fill="#0A0F17" stroke="#182230"/>
  <text x="40" y="212" fill="#93A0B2" font-family="Segoe UI, Arial, sans-serif" font-size="14" letter-spacing="4">SELECTED CONTEXT</text>
  <text x="40" y="235" fill="#F4F7FA" font-family="Segoe UI, Arial, sans-serif" font-size="24" font-weight="600">3 files selected</text>
  <rect x="220" y="195" width="52" height="32" rx="16" fill="#0B241E" stroke="#0C7054"/>
  <text x="231" y="217" fill="#9AF5CC" font-family="Segoe UI, Arial, sans-serif" font-size="16" font-weight="700">20.9 KB</text>
  <text x="20" y="320" fill="#C9D3E1" font-family="Segoe UI, Arial, sans-serif" font-size="22">▾ frontend</text>
  <rect x="210" y="298" width="84" height="30" rx="15" fill="#0B241E"/>
  <text x="225" y="319" fill="#9AF5CC" font-family="Segoe UI, Arial, sans-serif" font-size="16" font-weight="700">CONTEXT</text>
  <text x="54" y="370" fill="#DDE5F2" font-family="Segoe UI, Arial, sans-serif" font-size="22">□ poem.txt</text>
  <text x="20" y="120" fill="#A6B0C1" font-family="Segoe UI, Arial, sans-serif" font-size="16" font-weight="700" letter-spacing="4"></text>
  <text x="340" y="120" fill="#A6B0C1" font-family="Segoe UI, Arial, sans-serif" font-size="16" font-weight="700" letter-spacing="4">SESSION HISTORY</text>
  <text x="340" y="150" fill="#97A3B6" font-family="Segoe UI, Arial, sans-serif" font-size="18">Describe the task or paste the XML response back.</text>
  <rect x="1020" y="84" width="180" height="36" rx="18" fill="#0B241E" stroke="#0C7054"/>
  <text x="1058" y="107" fill="#9AF5CC" font-family="Segoe UI, Arial, sans-serif" font-size="16" font-weight="700">3 context files</text>
  <rect x="430" y="160" width="520" height="58" rx="20" fill="#0A0F17" stroke="#182230"/>
  <rect x="456" y="176" width="150" height="28" rx="14" fill="#0B241E" stroke="#0C7054"/>
  <text x="480" y="195" fill="#9AF5CC" font-family="Segoe UI, Arial, sans-serif" font-size="15" font-weight="700">Context ready</text>
  <rect x="620" y="176" width="300" height="28" rx="14" fill="#121923" stroke="#253143"/>
  <text x="642" y="195" fill="#9AA7BA" font-family="Segoe UI, Arial, sans-serif" font-size="15" font-weight="700">Task → source.txt → XML → apply</text>
  <rect x="430" y="250" width="700" height="370" rx="24" fill="#0A0F17" stroke="#182230"/>
  <rect x="430" y="250" width="700" height="94" rx="24" fill="url(#hero)"/>
  <text x="530" y="314" fill="#F4F7FA" font-family="Segoe UI, Arial, sans-serif" font-size="34" font-weight="700">Build the prompt in clear steps</text>
  <text x="530" y="348" fill="#A9B4C6" font-family="Segoe UI, Arial, sans-serif" font-size="22">Connect project context with the external coding model.</text>
  <text x="465" y="314" fill="#8EF1C5" font-family="Segoe UI Symbol, Segoe UI, Arial, sans-serif" font-size="42">⌘</text>
  <rect x="458" y="380" width="180" height="138" rx="18" fill="#0B0F16" stroke="#182230"/>
  <rect x="664" y="380" width="180" height="138" rx="18" fill="#0B0F16" stroke="#182230"/>
  <rect x="870" y="380" width="180" height="138" rx="18" fill="#0B0F16" stroke="#182230"/>
  <circle cx="490" cy="410" r="16" fill="#0B241E"/><text x="485" y="416" fill="#9AF5CC" font-family="Segoe UI, Arial, sans-serif" font-size="16" font-weight="700">1</text>
  <circle cx="696" cy="410" r="16" fill="#0B241E"/><text x="691" y="416" fill="#9AF5CC" font-family="Segoe UI, Arial, sans-serif" font-size="16" font-weight="700">2</text>
  <circle cx="902" cy="410" r="16" fill="#0B241E"/><text x="897" y="416" fill="#9AF5CC" font-family="Segoe UI, Arial, sans-serif" font-size="16" font-weight="700">3</text>
  <text x="470" y="460" fill="#F4F7FA" font-family="Segoe UI, Arial, sans-serif" font-size="20">Choose files in the</text>
  <text x="470" y="488" fill="#F4F7FA" font-family="Segoe UI, Arial, sans-serif" font-size="20">explorer for context.</text>
  <text x="676" y="460" fill="#F4F7FA" font-family="Segoe UI, Arial, sans-serif" font-size="20">Describe the task in</text>
  <text x="676" y="488" fill="#F4F7FA" font-family="Segoe UI, Arial, sans-serif" font-size="20">plain language.</text>
  <text x="882" y="460" fill="#F4F7FA" font-family="Segoe UI, Arial, sans-serif" font-size="20">Open source.txt and</text>
  <text x="882" y="488" fill="#F4F7FA" font-family="Segoe UI, Arial, sans-serif" font-size="20">send it to the model.</text>
  <text x="460" y="570" fill="#98A5B8" font-family="Segoe UI, Arial, sans-serif" font-size="20">Selected files: 3. The generated source.txt will include this context.</text>
  <rect x="430" y="700" width="700" height="138" rx="22" fill="#0A0F17" stroke="#182230"/>
  <text x="460" y="744" fill="#8F9BB0" font-family="Consolas, monospace" font-size="20">Describe your task...</text>
  <text x="460" y="800" fill="#7E899C" font-family="Consolas, monospace" font-size="16">Enter to send, Shift + Enter for a new line</text>
  <rect x="980" y="772" width="120" height="42" rx="21" fill="#1F9D55"/>
  <text x="1018" y="800" fill="#04120D" font-family="Segoe UI, Arial, sans-serif" font-size="20" font-weight="700">Send</text>
  <text x="1260" y="120" fill="#A6B0C1" font-family="Segoe UI, Arial, sans-serif" font-size="16" font-weight="700" letter-spacing="4">COMMITS</text>
  <text x="1260" y="150" fill="#97A3B6" font-family="Segoe UI, Arial, sans-serif" font-size="18">Open a commit to inspect its changes.</text>
  <rect x="1260" y="190" width="300" height="86" rx="18" fill="#0A0F17" stroke="#182230"/>
  <text x="1284" y="226" fill="#AAB4C5" font-family="Segoe UI, Arial, sans-serif" font-size="18">Use Revert only when you really</text>
  <text x="1284" y="252" fill="#AAB4C5" font-family="Segoe UI, Arial, sans-serif" font-size="18">want to reset the project.</text>
  <rect x="1260" y="312" width="300" height="208" rx="22" fill="#0A0F17" stroke="#182230"/>
  <text x="1284" y="362" fill="#F4F7FA" font-family="Segoe UI, Arial, sans-serif" font-size="28" font-weight="700">Refactor site</text>
  <text x="1284" y="396" fill="#F4F7FA" font-family="Segoe UI, Arial, sans-serif" font-size="28" font-weight="700">to pure HTML/CSS/JS</text>
  <rect x="1450" y="328" width="88" height="34" rx="17" fill="#0B241E" stroke="#0C7054"/>
  <text x="1472" y="350" fill="#9AF5CC" font-family="Segoe UI, Arial, sans-serif" font-size="16" font-weight="700">Current</text>
  <rect x="1450" y="374" width="88" height="34" rx="17" fill="#0B241E" stroke="#0C7054"/>
  <text x="1472" y="396" fill="#9AF5CC" font-family="Segoe UI, Arial, sans-serif" font-size="16" font-weight="700">Edit</text>
  <text x="1284" y="444" fill="#97A3B6" font-family="Segoe UI, Arial, sans-serif" font-size="18">2026-03-13 02:33</text>
  <rect x="1284" y="464" width="120" height="28" rx="14" fill="#121923" stroke="#253143"/>
  <text x="1302" y="482" fill="#A8B3C4" font-family="Segoe UI, Arial, sans-serif" font-size="14">Alexey Melnikov</text>
  <rect x="1284" y="500" width="78" height="28" rx="14" fill="#121923" stroke="#253143"/>
  <text x="1306" y="518" fill="#A8B3C4" font-family="Segoe UI, Arial, sans-serif" font-size="14">e1f4588</text>
  <rect x="1260" y="548" width="300" height="152" rx="22" fill="#0A0F17" stroke="#182230"/>
  <text x="1284" y="594" fill="#F4F7FA" font-family="Segoe UI, Arial, sans-serif" font-size="24" font-weight="700">Retro portfolio site</text>
  <text x="1284" y="626" fill="#F4F7FA" font-family="Segoe UI, Arial, sans-serif" font-size="24" font-weight="700">in pixel style</text>
  <rect x="1450" y="574" width="90" height="36" rx="18" fill="#2A1116" stroke="#6F1D2B"/>
  <text x="1470" y="597" fill="#F4B5C0" font-family="Segoe UI, Arial, sans-serif" font-size="16" font-weight="700">Revert</text>
  <defs>
    <linearGradient id="bg" x1="800" y1="0" x2="800" y2="900" gradientUnits="userSpaceOnUse">
      <stop stop-color="#06101A"/>
      <stop offset="1" stop-color="#05070B"/>
    </linearGradient>
    <linearGradient id="hero" x1="430" y1="250" x2="560" y2="344" gradientUnits="userSpaceOnUse">
      <stop stop-color="#0B241E"/>
      <stop offset="1" stop-color="#0A0F17"/>
    </linearGradient>
  </defs>
</svg>
